HIERARCHY
ROOT joint_Root
{
	OFFSET 0.0 0.0 0.0
	CHANNELS 6 Xposition Yposition Zposition Zrotation Xrotation Yrotation 
	JOINT Hips
	{
		OFFSET -0.726466 93.3139 -2.00062
		CHANNELS 6 Xposition Yposition Zposition Zrotation Xrotation Yrotation 
		JOINT Spine
		{
			OFFSET 15.7357 0.0 0.0
			CHANNELS 6 Xposition Yposition Zposition Zrotation Xrotation Yrotation 
			JOINT Chest
			{
				OFFSET 8.98455 -0.406207 0.0
				CHANNELS 6 Xposition Yposition Zposition Zrotation Xrotation Yrotation 
				JOINT Neck
				{
					OFFSET 16.3773 0.0 0.0
					CHANNELS 6 Xposition Yposition Zposition Zrotation Xrotation Yrotation 
					JOINT Head
					{
						OFFSET 6.45672 0.0 0.0
						CHANNELS 6 Xposition Yposition Zposition Zrotation Xrotation Yrotation 
						End Site
						{
							OFFSET 0.0 0.0 0.0
						}
					}
				}
				JOINT Shoulder_L
				{
					OFFSET 12.9942 -0.242716 4.98039
					CHANNELS 6 Xposition Yposition Zposition Zrotation Xrotation Yrotation 
					JOINT UpperArm_L
					{
						OFFSET 5.34809 0.0 0.0
						CHANNELS 6 Xposition Yposition Zposition Zrotation Xrotation Yrotation 
						JOINT LowerArm_L
						{
							OFFSET 24.3286 1.87007e-05 0.0
							CHANNELS 6 Xposition Yposition Zposition Zrotation Xrotation Yrotation 
							JOINT Hand_L
							{
								OFFSET 22.2916 0.0 0.0
								CHANNELS 6 Xposition Yposition Zposition Zrotation Xrotation Yrotation 
								End Site
								{
									OFFSET 0.0 0.0 0.0
								}
							}
						}
					}
				}
				JOINT Shoulder_R
				{
					OFFSET 12.9945 -0.242716 -4.98039
					CHANNELS 6 Xposition Yposition Zposition Zrotation Xrotation Yrotation 
					JOINT UpperArm_R
					{
						OFFSET -5.34813 0.0 0.0
						CHANNELS 6 Xposition Yposition Zposition Zrotation Xrotation Yrotation 
						JOINT LowerArm_R
						{
							OFFSET -24.3289 0.000322201 0.0
							CHANNELS 6 Xposition Yposition Zposition Zrotation Xrotation Yrotation 
							JOINT Hand_R
							{
								OFFSET -22.2915 -0.000108084 0.0
								CHANNELS 6 Xposition Yposition Zposition Zrotation Xrotation Yrotation 
								End Site
								{
									OFFSET 0.0 0.0 0.0
								}
							}
						}
					}
				}
			}
		}
		JOINT UpperLeg_L
		{
			OFFSET -2.19248 -6.46944 0.0
			CHANNELS 6 Xposition Yposition Zposition Zrotation Xrotation Yrotation 
			JOINT LowerLeg_L
			{
				OFFSET 39.0811 0.0 -1.23785e-05
				CHANNELS 6 Xposition Yposition Zposition Zrotation Xrotation Yrotation 
				JOINT Foot_L
				{
					OFFSET 40.9854 0.0 -1.26872e-05
					CHANNELS 6 Xposition Yposition Zposition Zrotation Xrotation Yrotation 
					JOINT Toes_L
					{
						OFFSET 11.7543 0.0 0.0
						CHANNELS 6 Xposition Yposition Zposition Zrotation Xrotation Yrotation 
						End Site
						{
							OFFSET 0.0 0.0 0.0
						}
					}
				}
			}
		}
		JOINT UpperLeg_R
		{
			OFFSET -2.19251 6.46944 0.0
			CHANNELS 6 Xposition Yposition Zposition Zrotation Xrotation Yrotation 
			JOINT LowerLeg_R
			{
				OFFSET -39.0811 -0.00228153 -0.0401928
				CHANNELS 6 Xposition Yposition Zposition Zrotation Xrotation Yrotation 
				JOINT Foot_R
				{
					OFFSET -40.9854 0.0 0.0
					CHANNELS 6 Xposition Yposition Zposition Zrotation Xrotation Yrotation 
					JOINT Toes_R
					{
						OFFSET -11.7543 0.0 0.0
						CHANNELS 6 Xposition Yposition Zposition Zrotation Xrotation Yrotation 
						End Site
						{
							OFFSET 0.0 0.0 0.0
						}
					}
				}
			}
		}
	}
}
MOTION
Frames:	8
Frame Time:	0.0333333
0.000000 0.000000 0.000000 0.000000 0.000000 -0.000000 -1.490890 92.184700 -2.396100 87.413300 -0.059747 2.147590 15.735700 0.000005 -0.000001 86.195400 84.682400 -86.106100 8.984550 -0.406207 -0.000000 2.846460 -0.708851 0.195853 16.377300 -0.000001 -0.000001 1.125860 -2.260990 -0.422898 6.456720 -0.000001 -0.000000 -2.049620 -2.030040 6.898460 12.994200 -0.242716 4.980390 -89.533300 -1.530800 -73.043900 5.348090 -0.000007 -0.000001 -65.474600 37.399800 -17.364900 24.328600 0.000019 0.000005 2.919710 6.315370 -24.874900 22.291600 -0.000001 0.000005 8.163030 5.554550 -8.917490 12.994500 -0.242716 -4.980390 87.816200 6.766090 -72.065200 -5.348130 -0.000001 -0.000004 -67.075800 35.343700 -15.383600 -24.328900 0.000322 -0.000009 0.398178 1.015580 -21.464200 -22.291500 -0.000108 -0.000004 10.310200 5.504780 -6.724340 -2.192480 -6.469440 -0.000000 -168.150000 -16.103500 -4.366900 39.081100 -0.000007 -0.000012 -0.169013 0.456012 20.336500 40.985400 -0.000006 -0.000013 -6.858510 3.220390 -61.719800 11.754300 -0.000000 0.000003 -0.000151 -0.001464 -16.633200 -2.192510 6.469440 -0.000001 175.311000 21.988200 177.743000 -39.081100 -0.002282 -0.040193 -0.031003 0.101232 18.731000 -40.985400 0.000008 0.000006 -2.624170 4.018440 -62.343400 -11.754300 -0.000006 -0.000006 -0.005048 -0.061925 -19.092700
0.000000 0.000000 0.000000 0.000000 0.000000 -0.000000 -1.461370 92.208100 -2.511630 87.413000 -0.135874 2.011850 15.735700 0.000005 -0.000001 86.300100 84.702100 -86.217400 8.984550 -0.406207 -0.000000 2.808440 -0.686686 0.182070 16.377300 -0.000001 -0.000001 0.509230 -2.143290 -0.416723 6.456720 -0.000001 -0.000000 -2.587640 -1.996040 6.937790 12.994200 -0.242716 4.980390 -89.466200 -1.733280 -72.879400 5.348090 -0.000007 -0.000001 -66.364700 34.216500 -16.337600 24.328600 0.000019 0.000005 3.181710 6.892460 -24.853800 22.291600 -0.000001 0.000005 10.557000 5.563230 -9.343720 12.994500 -0.242716 -4.980390 87.855400 6.629690 -72.029100 -5.348130 -0.000001 -0.000004 -67.583600 32.128100 -14.887600 -24.328900 0.000322 -0.000009 0.527393 1.417300 -20.451000 -22.291500 -0.000108 -0.000004 12.289000 5.508510 -6.881840 -2.192480 -6.469440 -0.000000 -168.234000 -16.142200 -4.526010 39.081100 -0.000007 -0.000012 -0.167760 0.455065 20.236600 40.985400 -0.000006 -0.000013 -6.836710 3.118700 -61.606500 11.754300 -0.000000 0.000003 -0.000159 -0.001524 -16.635400 -2.192510 6.469440 -0.000001 175.388000 22.010500 177.551000 -39.081100 -0.002282 -0.040193 -0.029771 0.098261 18.613900 -40.985400 0.000008 0.000006 -2.574990 4.073500 -62.190100 -11.754300 -0.000006 -0.000006 -0.004851 -0.060020 -19.015100
0.000000 0.000000 0.000000 0.000000 0.000000 -0.000000 -1.436980 92.232100 -2.616850 87.394900 -0.136990 1.852250 15.735700 0.000005 -0.000001 85.987600 84.759000 -85.900100 8.984550 -0.406207 -0.000000 2.691010 -0.736666 0.192047 16.377300 -0.000001 -0.000001 -0.048375 -1.983750 -0.401441 6.456720 -0.000001 -0.000000 -3.198100 -1.896980 6.888200 12.994200 -0.242716 4.980390 -89.394900 -1.932920 -72.614000 5.348090 -0.000007 -0.000001 -66.824000 30.090800 -15.373700 24.328600 0.000019 0.000005 2.899250 6.382630 -24.492000 22.291600 -0.000001 0.000005 12.974000 5.571150 -9.741280 12.994500 -0.242716 -4.980390 87.907300 6.433310 -71.937500 -5.348130 -0.000001 -0.000004 -67.840300 27.983000 -14.310200 -24.328900 0.000322 -0.000009 0.475802 1.350960 -19.442900 -22.291500 -0.000108 -0.000004 15.587700 5.508450 -6.883810 -2.192480 -6.469440 -0.000000 -168.304000 -16.121400 -4.715570 39.081100 -0.000007 -0.000012 -0.164458 0.448650 20.131200 40.985400 -0.000006 -0.000013 -6.811470 3.087840 -61.493900 11.754300 -0.000000 0.000003 -0.000148 -0.001440 -16.632300 -2.192510 6.469440 -0.000001 175.505000 22.066100 177.349000 -39.081100 -0.002282 -0.040193 -0.024754 0.083934 18.496300 -40.985400 0.000008 0.000006 -2.450940 4.087380 -62.060700 -11.754300 -0.000006 -0.000006 -0.005034 -0.061790 -19.087200
0.000000 0.000000 0.000000 0.000000 0.000000 -0.000000 -1.407220 92.261000 -2.724030 87.404400 -0.173155 1.729550 15.735700 0.000005 -0.000001 86.028500 84.843300 -85.954200 8.984550 -0.406207 -0.000000 2.523160 -0.717119 0.164120 16.377300 -0.000001 -0.000001 -0.582714 -1.847220 -0.404478 6.456720 -0.000001 -0.000000 -3.705810 -1.827860 6.920270 12.994200 -0.242716 4.980390 -89.332600 -2.107670 -72.424100 5.348090 -0.000007 -0.000001 -66.387200 25.309200 -14.733300 24.328600 0.000019 0.000005 2.460800 5.540630 -23.993400 22.291600 -0.000001 0.000005 14.810100 5.576750 -10.037100 12.994500 -0.242716 -4.980390 87.951900 6.251540 -71.819100 -5.348130 -0.000001 -0.000004 -67.310400 23.349300 -13.820700 -24.328900 0.000322 -0.000009 0.181375 0.540079 -18.652900 -22.291500 -0.000108 -0.000004 18.774300 5.504480 -6.714390 -2.192480 -6.469440 -0.000000 -168.405000 -16.173400 -4.845160 39.081100 -0.000007 -0.000012 -0.159921 0.439578 19.991800 40.985400 -0.000006 -0.000013 -6.771990 3.027520 -61.360400 11.754300 -0.000000 0.000003 -0.000142 -0.001391 -16.630500 -2.192510 6.469440 -0.000001 175.572000 22.030200 177.194000 -39.081100 -0.002282 -0.040193 -0.021936 0.076155 18.350500 -40.985400 0.000008 0.000006 -2.324100 4.070870 -61.915300 -11.754300 -0.000006 -0.000006 -0.004918 -0.060673 -19.041700
0.000000 0.000000 0.000000 0.000000 0.000000 -0.000000 -1.390000 92.275700 -2.844220 87.405400 -0.190104 1.637920 15.735700 0.000005 -0.000001 86.082600 84.916900 -86.019700 8.984550 -0.406207 -0.000000 2.376870 -0.696940 0.140030 16.377300 -0.000001 -0.000001 -1.148180 -1.727620 -0.385795 6.456720 -0.000001 -0.000000 -4.182060 -1.764710 6.924880 12.994200 -0.242716 4.980390 -89.276400 -2.268520 -72.303300 5.348090 -0.000007 -0.000001 -64.674000 20.593200 -14.757600 24.328600 0.000019 0.000005 2.348720 5.428250 -23.439900 22.291600 -0.000001 0.000005 16.056600 5.576520 -10.025900 12.994500 -0.242716 -4.980390 88.002700 6.046820 -71.682500 -5.348130 -0.000001 -0.000004 -65.764500 18.656800 -13.933700 -24.328900 0.000322 -0.000009 -0.037363 -0.114343 -17.649200 -22.291500 -0.000108 -0.000004 20.909000 5.499750 -6.525530 -2.192480 -6.469440 -0.000000 -168.483000 -16.176200 -5.020790 39.081100 -0.000007 -0.000012 -0.157177 0.432664 19.965100 40.985400 -0.000006 -0.000013 -6.738000 2.975580 -61.267100 11.754300 -0.000000 0.000003 -0.000149 -0.001444 -16.632500 -2.192510 6.469440 -0.000001 175.644000 21.957200 177.016000 -39.081100 -0.002282 -0.040193 -0.019937 0.070333 18.300700 -40.985400 0.000008 0.000006 -2.299310 4.005910 -61.805800 -11.754300 -0.000006 -0.000006 -0.005111 -0.062537 -19.117700
0.000000 0.000000 0.000000 0.000000 0.000000 -0.000000 -1.358430 92.293600 -2.953340 87.425600 -0.242283 1.589560 15.735700 0.000005 -0.000001 85.996400 85.003900 -85.955700 8.984550 -0.406207 -0.000000 2.202200 -0.699116 0.094878 16.377300 -0.000001 -0.000001 -1.644740 -1.597080 -0.342964 6.456720 -0.000001 -0.000000 -4.631340 -1.701270 6.983180 12.994200 -0.242716 4.980390 -89.196900 -2.496010 -72.158100 5.348090 -0.000007 -0.000001 -62.409700 15.028000 -15.064400 24.328600 0.000019 0.000005 2.389800 5.707270 -22.766000 22.291600 -0.000001 0.000005 16.777800 5.576840 -10.043900 12.994500 -0.242716 -4.980390 88.068100 5.813600 -71.581900 -5.348130 -0.000001 -0.000004 -63.376400 13.612800 -14.572700 -24.328900 0.000322 -0.000009 -0.086169 -0.288444 -16.444400 -22.291500 -0.000108 -0.000004 21.769600 5.491540 -6.196340 -2.192480 -6.469440 -0.000000 -168.545000 -16.192200 -5.079640 39.081100 -0.000007 -0.000012 -0.157970 0.437454 19.855500 40.985400 -0.000006 -0.000013 -6.719600 2.940830 -61.154200 11.754300 -0.000000 0.000003 -0.000176 -0.001666 -16.640600 -2.192510 6.469440 -0.000001 175.655000 21.923900 176.912000 -39.081100 -0.002282 -0.040193 -0.020427 0.072167 18.217000 -40.985400 0.000008 0.000006 -2.280300 4.030240 -61.679300 -11.754300 -0.000006 -0.000006 -0.004821 -0.059722 -19.002900
0.000000 0.000000 0.000000 0.000000 0.000000 -0.000000 -1.343110 92.297400 -3.063350 87.384500 -0.289519 1.550140 15.735700 0.000005 -0.000001 85.917200 85.103100 -85.877800 8.984550 -0.406207 -0.000000 2.003240 -0.698804 0.091003 16.377300 -0.000001 -0.000001 -2.117780 -1.498420 -0.315881 6.456720 -0.000001 -0.000000 -5.025730 -1.673850 7.090010 12.994200 -0.242716 4.980390 -89.071200 -2.868700 -72.050800 5.348090 -0.000007 -0.000001 -59.958600 8.549060 -15.601900 24.328600 0.000019 0.000005 2.442520 6.018740 -22.136900 22.291600 -0.000001 0.000005 17.686200 5.579750 -10.198300 12.994500 -0.242716 -4.980390 88.168500 5.492760 -71.527500 -5.348130 -0.000001 -0.000004 -60.712100 7.424050 -15.503500 -24.328900 0.000322 -0.000009 0.056022 0.207939 -15.368300 -22.291500 -0.000108 -0.000004 22.500300 5.483860 -5.899500 -2.192480 -6.469440 -0.000000 -168.540000 -16.255500 -5.221020 39.081100 -0.000007 -0.000012 -0.157472 0.434504 19.921600 40.985400 -0.000006 -0.000013 -6.690240 2.954460 -61.117000 11.754300 -0.000000 0.000003 -0.000148 -0.001436 -16.632200 -2.192510 6.469440 -0.000001 175.740000 21.888500 176.785000 -39.081100 -0.002282 -0.040193 -0.019293 0.068805 18.196700 -40.985400 0.000008 0.000006 -2.305970 4.026700 -61.582200 -11.754300 -0.000006 -0.000006 -0.005262 -0.063975 -19.176300
0.000000 0.000000 0.000000 0.000000 0.000000 -0.000000 -1.325090 92.316400 -3.154430 87.372900 -0.378989 1.555960 15.735700 0.000005 -0.000001 86.231700 85.219800 -86.200700 8.984550 -0.406207 -0.000000 1.774040 -0.629591 0.071698 16.377300 -0.000001 -0.000001 -2.593910 -1.463320 -0.219391 6.456720 -0.000001 -0.000000 -5.356180 -1.662060 7.137940 12.994200 -0.242716 4.980390 -88.889100 -3.401180 -71.899100 5.348090 -0.000007 -0.000001 -57.741600 0.877398 -16.418800 24.328600 0.000019 0.000005 2.637690 6.566990 -21.940400 22.291600 -0.000001 0.000005 19.298400 5.579380 -10.178900 12.994500 -0.242716 -4.980390 88.288300 5.076490 -71.339300 -5.348130 -0.000001 -0.000004 -57.850900 0.423687 -16.720200 -24.328900 0.000322 -0.000009 0.213887 0.806755 -14.918900 -22.291500 -0.000108 -0.000004 24.414200 5.473180 -5.493540 -2.192480 -6.469440 -0.000000 -168.547000 -16.241600 -5.204600 39.081100 -0.000007 -0.000012 -0.157031 0.435858 19.813300 40.985400 -0.000006 -0.000013 -6.690350 2.864100 -61.021900 11.754300 -0.000000 0.000003 -0.000169 -0.001608 -16.638500 -2.192510 6.469440 -0.000001 175.784000 21.864800 176.746000 -39.081100 -0.002282 -0.040193 -0.016273 0.059911 18.114000 -40.985400 0.000008 0.000006 -2.170780 4.058260 -61.477800 -11.754300 -0.000006 -0.000006 -0.005203 -0.063413 -19.153400
